<svg width="224" height="224" viewBox="0 0 224 224" fill="none" xmlns="http://www.w3.org/2000/svg">
    <path fill-rule="evenodd" clip-rule="evenodd" d="M181.934 202.657C177.66 198.91 171.38 198.739 166.553 201.739C149.86 212.117 130.158 218.111 109.055 218.111C48.8258 218.111 0 169.285 0 109.055C0 48.8258 48.8258 0 109.055 0C169.285 0 218.111 48.8258 218.111 109.055C218.111 130.578 211.876 150.644 201.115 167.546C197.676 172.947 198.265 180.17 203.079 184.391L220.608 199.758C226.354 204.796 226.929 213.538 221.891 219.284C216.854 225.031 208.111 225.605 202.365 220.568L181.934 202.657ZM193.876 109.055C193.876 155.901 155.901 193.876 109.055 193.876C62.21 193.876 24.2345 155.901 24.2345 109.055C24.2345 62.2102 62.21 24.2345 109.055 24.2345C155.901 24.2345 193.876 62.2102 193.876 109.055Z" fill="#0D0C00"/>
    <mask id="mask0_1129_68727" style="mask-type:alpha" maskUnits="userSpaceOnUse" x="24" y="24" width="170" height="170">
        <circle cx="109" cy="109" r="85" fill="#D9D9D9"/>
    </mask>
    <g mask="url(#mask0_1129_68727)">
        <ellipse cx="64.9477" cy="115.828" rx="95.557" ry="87.8126" fill="#FFDA00"/>
        <path d="M36.0229 133.358C37.3654 141.658 58.5606 140.571 71.8781 140.983C79.0463 141.134 104.25 142.219 103.636 133.358C103.021 124.496 90.2785 131.163 87.4101 117.149C84.5417 103.136 80.2622 101.587 71.8781 100.796C65.3217 100.178 58.0696 103.16 53.767 113.67C48.8054 125.79 34.5895 124.496 36.0229 133.358Z" fill="#F97429"/>
        <path d="M201.289 242.915C201.289 307.053 137.116 337.612 57.954 337.612C-60.6951 337.612 -86.8316 296.099 -82.4756 242.915C-77.9646 187.84 -21.208 148.219 57.954 148.219C137.116 148.219 201.289 182.176 201.289 242.915Z" fill="#FFDA00"/>
        <path fill-rule="evenodd" clip-rule="evenodd" d="M-19.7992 104.156C-31.3937 85.59 -8.90595 68.6051 11.8355 75.6002L41.07 85.4596C51.4063 88.9456 57.2733 99.8449 54.4911 110.392C52.0297 119.724 43.4605 126.131 33.8666 125.085C16.8887 123.236 -8.32105 118.758 -16.9439 108.168C-17.9723 106.905 -18.9221 105.561 -19.7992 104.156Z" fill="#0D0C00"/>
        <path fill-rule="evenodd" clip-rule="evenodd" d="M161.737 110.016C173.99 91.8155 152.394 73.7762 131.288 79.7702L101.432 88.2491C90.7943 91.2703 84.2869 101.985 86.5109 112.818C88.4939 122.477 96.891 129.488 106.735 128.91C123.869 127.904 149.174 124.658 158.34 114.408C159.563 113.041 160.693 111.567 161.737 110.016Z" fill="#0D0C00"/>
        <path fill-rule="evenodd" clip-rule="evenodd" d="M42.8906 86.0156C42.8906 86.0156 61.1789 91.3962 72.3824 91.6309C83.5859 91.8655 104.962 87.3157 104.962 87.3157L87.0095 115.423C87.0095 115.423 84.4189 103.21 71.0976 103.21C57.7762 103.21 53.1431 115.423 53.1431 115.423L42.8906 86.0156Z" fill="#7B7B7B"/>
    </g>
</svg>
