<svg width="915" height="224" viewBox="0 0 915 224" fill="none" xmlns="http://www.w3.org/2000/svg">
<path d="M324.512 73.4C333.813 73.4 341.195 74.808 346.656 77.624C352.203 80.3547 355.915 85.0907 357.792 91.832C359.669 98.488 359.755 107.747 358.048 119.608C356.768 128.739 355.061 136.248 352.928 142.136C350.795 147.939 348.064 152.461 344.736 155.704C341.408 158.861 337.227 161.08 332.192 162.36C327.157 163.64 321.141 164.28 314.144 164.28C308 164.28 302.027 164.152 296.224 163.896C290.421 163.64 284.875 163.341 279.584 163L289.184 148.536C292.341 148.707 296.224 148.877 300.832 149.048C305.44 149.133 309.792 149.176 313.888 149.176C317.472 149.176 320.544 148.792 323.104 148.024C325.749 147.171 327.968 145.635 329.76 143.416C331.637 141.197 333.173 138.083 334.368 134.072C335.648 129.976 336.715 124.643 337.568 118.072C338.421 112.013 338.848 107.064 338.848 103.224C338.848 99.2987 338.336 96.2693 337.312 94.136C336.373 92.0027 334.795 90.5093 332.576 89.656C330.357 88.8027 327.456 88.376 323.872 88.376C321.227 88.376 318.453 88.4187 315.552 88.504C312.651 88.504 309.792 88.504 306.976 88.504C304.245 88.504 301.728 88.504 299.424 88.504L292 74.68C295.072 74.424 298.443 74.2107 302.112 74.04C305.781 73.784 309.536 73.6133 313.376 73.528C317.216 73.4427 320.928 73.4 324.512 73.4ZM311.584 74.68L299.168 163H279.584L292 74.68H311.584ZM392.949 99.768L386.933 141.624C386.592 144.269 386.848 146.104 387.701 147.128C388.64 148.152 390.133 148.664 392.181 148.664C395.168 148.664 398.069 147.811 400.885 146.104C403.786 144.397 407.413 141.667 411.765 137.912L414.581 147.384C409.034 153.272 403.786 157.667 398.837 160.568C393.888 163.384 388.853 164.792 383.733 164.792C377.589 164.792 373.109 163.213 370.293 160.056C367.562 156.813 366.624 152.376 367.477 146.744L374.005 99.768H392.949ZM434.549 99.768L425.845 163H410.997L411.253 145.848L409.589 144.184L415.733 99.768H434.549ZM477.665 98.104C481.676 98.104 485.942 98.4453 490.465 99.128C494.988 99.7253 498.956 100.749 502.369 102.2L499.681 113.848C495.926 113.677 492.342 113.592 488.929 113.592C485.516 113.507 482.614 113.464 480.225 113.464C476.47 113.464 473.398 113.976 471.009 115C468.62 116.024 466.785 117.859 465.505 120.504C464.225 123.064 463.286 126.691 462.689 131.384C462.006 136.333 461.921 140.088 462.433 142.648C462.945 145.208 464.182 146.957 466.145 147.896C468.193 148.835 471.052 149.304 474.721 149.304C476.257 149.304 478.092 149.261 480.225 149.176C482.444 149.091 484.833 149.005 487.393 148.92C489.953 148.749 492.428 148.493 494.817 148.152L496.097 160.44C492.428 161.891 488.374 162.915 483.937 163.512C479.585 164.195 475.404 164.536 471.393 164.536C463.969 164.536 457.953 163.427 453.345 161.208C448.737 158.904 445.537 155.277 443.745 150.328C442.038 145.293 441.74 138.723 442.849 130.616C444.044 122.765 445.878 116.493 448.353 111.8C450.913 107.021 454.54 103.565 459.233 101.432C464.012 99.2133 470.156 98.104 477.665 98.104ZM537.795 73.4L532.547 112.44C532.12 115.171 531.48 117.816 530.627 120.376C529.859 122.936 528.835 125.581 527.555 128.312C527.726 130.275 527.939 132.493 528.195 134.968C528.451 137.357 528.536 139.491 528.451 141.368L525.251 163H506.307L518.851 73.4H537.795ZM574.403 99.768C572.526 106.424 569.795 112.099 566.211 116.792C562.712 121.4 558.659 125.283 554.051 128.44C549.443 131.597 544.622 134.285 539.587 136.504C534.552 138.637 529.731 140.515 525.123 142.136L523.459 129.592C528.238 127.715 532.803 125.283 537.155 122.296C541.592 119.309 545.347 115.896 548.419 112.056C551.576 108.216 553.752 104.12 554.947 99.768H574.403ZM549.699 127.032C551.832 128.312 553.582 129.848 554.947 131.64C556.312 133.432 557.422 135.309 558.275 137.272L570.307 163H550.595L536.771 131.768L549.699 127.032ZM625.286 73.144C629.467 73.144 633.051 73.272 636.038 73.528C639.025 73.6987 641.755 74.04 644.23 74.552C646.79 74.9787 649.35 75.576 651.91 76.344L649.35 90.552C646.619 90.3813 644.017 90.2533 641.542 90.168C639.153 90.0827 636.635 90.04 633.99 90.04C631.345 89.9547 628.187 89.912 624.518 89.912C621.19 89.912 618.374 90.3387 616.07 91.192C613.766 91.96 611.761 93.4107 610.054 95.544C608.433 97.592 607.067 100.579 605.958 104.504C604.849 108.344 603.91 113.379 603.142 119.608C602.118 126.947 601.734 132.664 601.99 136.76C602.331 140.856 603.526 143.715 605.574 145.336C607.707 146.957 610.95 147.768 615.302 147.768C621.361 147.768 626.353 147.683 630.278 147.512C634.289 147.256 638.214 146.957 642.054 146.616L642.95 161.08C638.683 162.275 634.417 163.128 630.15 163.64C625.883 164.237 620.721 164.536 614.662 164.536C605.531 164.536 598.321 163 593.03 159.928C587.825 156.856 584.411 151.949 582.79 145.208C581.169 138.381 581.126 129.336 582.662 118.072C583.942 109.453 585.606 102.243 587.654 96.44C589.702 90.6373 592.347 86.0293 595.59 82.616C598.833 79.2027 602.886 76.7707 607.75 75.32C612.614 73.8693 618.459 73.144 625.286 73.144ZM705.153 98.104C711.041 98.104 715.393 99.64 718.209 102.712C721.11 105.784 722.134 110.221 721.281 116.024L714.625 163H695.681L701.697 121.144C702.038 118.413 701.868 116.579 701.185 115.64C700.502 114.616 699.137 114.104 697.089 114.104C694.017 114.104 690.902 115 687.745 116.792C684.588 118.499 680.748 121.144 676.225 124.728L674.049 115.128C679.766 109.325 685.185 105.059 690.305 102.328C695.51 99.512 700.46 98.104 705.153 98.104ZM684.545 73.4L681.473 95.672C680.961 99.6827 680.15 103.608 679.041 107.448C678.017 111.288 677.078 114.317 676.225 116.536L678.145 118.072L672.001 163H653.057L665.601 73.4H684.545ZM768.722 98.104C770.941 98.104 773.415 98.232 776.146 98.488C778.962 98.6587 781.778 98.9147 784.594 99.256C787.495 99.5973 790.183 99.9813 792.658 100.408C795.218 100.835 797.309 101.261 798.93 101.688L786.002 111.928C782.589 111.757 779.474 111.672 776.658 111.672C773.842 111.587 771.197 111.544 768.722 111.544C765.906 111.544 763.517 111.757 761.554 112.184C759.591 112.611 757.97 113.464 756.69 114.744C755.41 115.939 754.343 117.773 753.49 120.248C752.637 122.723 751.911 126.051 751.314 130.232C750.546 135.523 750.119 139.576 750.034 142.392C750.034 145.123 750.546 147 751.57 148.024C752.594 149.048 754.215 149.517 756.434 149.432C758.738 149.347 761.127 148.579 763.602 147.128C766.162 145.677 768.679 143.715 771.154 141.24C773.629 138.68 776.018 135.821 778.322 132.664L781.65 138.808C779.943 143.843 777.511 148.28 774.354 152.12C771.282 155.875 767.655 158.819 763.474 160.952C759.293 163.085 754.642 164.28 749.522 164.536C743.975 164.792 739.709 163.683 736.722 161.208C733.821 158.733 732.029 154.893 731.346 149.688C730.663 144.483 730.919 137.955 732.114 130.104C733.223 122.851 734.759 117.091 736.722 112.824C738.77 108.472 741.33 105.272 744.402 103.224C747.474 101.091 751.015 99.7253 755.026 99.128C759.122 98.4453 763.687 98.104 768.722 98.104ZM780.242 100.536L798.93 101.688L790.354 163H775.634L775.89 148.664L773.586 147.128L780.242 100.536ZM833.717 99.768L824.885 163H806.069L814.901 99.768H833.717ZM831.797 71.864C833.845 71.864 835.296 72.376 836.149 73.4C837.088 74.424 837.429 75.96 837.173 78.008L836.277 84.792C835.765 88.376 833.674 90.168 830.005 90.168H822.325C818.229 90.168 816.394 88.12 816.821 84.024L817.845 77.24C818.186 73.656 820.234 71.864 823.989 71.864H831.797ZM893.415 98.104C896.914 98.104 899.943 98.7867 902.503 100.152C905.063 101.432 906.94 103.395 908.135 106.04C909.33 108.685 909.671 112.013 909.159 116.024L902.503 163H883.431L889.319 121.784C889.746 118.883 889.575 116.877 888.807 115.768C888.124 114.573 886.588 114.019 884.199 114.104C881.383 114.189 878.396 115.085 875.239 116.792C872.167 118.499 868.412 121.144 863.975 124.728L861.799 115.128C866.834 109.752 872.039 105.571 877.415 102.584C882.876 99.5973 888.21 98.104 893.415 98.104ZM864.487 99.768V116.408L866.023 118.2L859.751 163H840.807L849.639 99.768H864.487Z" fill="#0D0C00"/>
<path fill-rule="evenodd" clip-rule="evenodd" d="M181.934 202.657C177.66 198.91 171.38 198.739 166.553 201.739C149.86 212.117 130.158 218.111 109.055 218.111C48.8258 218.111 0 169.285 0 109.055C0 48.8258 48.8258 0 109.055 0C169.285 0 218.111 48.8258 218.111 109.055C218.111 130.578 211.876 150.644 201.115 167.546C197.676 172.947 198.265 180.17 203.079 184.391L220.608 199.758C226.354 204.796 226.929 213.538 221.891 219.284C216.854 225.031 208.111 225.605 202.365 220.568L181.934 202.657ZM193.876 109.055C193.876 155.901 155.901 193.876 109.055 193.876C62.21 193.876 24.2345 155.901 24.2345 109.055C24.2345 62.2102 62.21 24.2345 109.055 24.2345C155.901 24.2345 193.876 62.2102 193.876 109.055Z" fill="#0D0C00"/>
<mask id="mask0_1129_68727" style="mask-type:alpha" maskUnits="userSpaceOnUse" x="24" y="24" width="170" height="170">
<circle cx="109" cy="109" r="85" fill="#D9D9D9"/>
</mask>
<g mask="url(#mask0_1129_68727)">
<ellipse cx="64.9477" cy="115.828" rx="95.557" ry="87.8126" fill="#FFDA00"/>
<path d="M36.0229 133.358C37.3654 141.658 58.5606 140.571 71.8781 140.983C79.0463 141.134 104.25 142.219 103.636 133.358C103.021 124.496 90.2785 131.163 87.4101 117.149C84.5417 103.136 80.2622 101.587 71.8781 100.796C65.3217 100.178 58.0696 103.16 53.767 113.67C48.8054 125.79 34.5895 124.496 36.0229 133.358Z" fill="#F97429"/>
<path d="M201.289 242.915C201.289 307.053 137.116 337.612 57.954 337.612C-60.6951 337.612 -86.8316 296.099 -82.4756 242.915C-77.9646 187.84 -21.208 148.219 57.954 148.219C137.116 148.219 201.289 182.176 201.289 242.915Z" fill="#FFDA00"/>
<path fill-rule="evenodd" clip-rule="evenodd" d="M-19.7992 104.156C-31.3937 85.59 -8.90595 68.6051 11.8355 75.6002L41.07 85.4596C51.4063 88.9456 57.2733 99.8449 54.4911 110.392C52.0297 119.724 43.4605 126.131 33.8666 125.085C16.8887 123.236 -8.32105 118.758 -16.9439 108.168C-17.9723 106.905 -18.9221 105.561 -19.7992 104.156Z" fill="#0D0C00"/>
<path fill-rule="evenodd" clip-rule="evenodd" d="M161.737 110.016C173.99 91.8155 152.394 73.7762 131.288 79.7702L101.432 88.2491C90.7943 91.2703 84.2869 101.985 86.5109 112.818C88.4939 122.477 96.891 129.488 106.735 128.91C123.869 127.904 149.174 124.658 158.34 114.408C159.563 113.041 160.693 111.567 161.737 110.016Z" fill="#0D0C00"/>
<path fill-rule="evenodd" clip-rule="evenodd" d="M42.8906 86.0156C42.8906 86.0156 61.1789 91.3962 72.3824 91.6309C83.5859 91.8655 104.962 87.3157 104.962 87.3157L87.0095 115.423C87.0095 115.423 84.4189 103.21 71.0976 103.21C57.7762 103.21 53.1431 115.423 53.1431 115.423L42.8906 86.0156Z" fill="#7B7B7B"/>
</g>
</svg>
